<mxfile host="app.diagrams.net" modified="2023-12-28T04:21:14.732Z" agent="Mozilla/5.0 (Windows NT 10.0; Win64; x64) AppleWebKit/537.36 (KHTML, like Gecko) Chrome/119.0.0.0 Safari/537.36 Edg/119.0.0.0" etag="VWA-zrPBRIJBY044t2ky" version="22.1.15" type="github">
  <diagram name="第 1 页" id="7i3Y2KCJodw82isjAdBV">
    <mxGraphModel dx="1386" dy="759" grid="1" gridSize="10" guides="1" tooltips="1" connect="1" arrows="1" fold="1" page="1" pageScale="1" pageWidth="827" pageHeight="1169" math="0" shadow="0">
      <root>
        <mxCell id="0" />
        <mxCell id="1" parent="0" />
        <mxCell id="EIhSu--SQNdTw0fNG2EI-1" value="" style="edgeStyle=orthogonalEdgeStyle;rounded=0;orthogonalLoop=1;jettySize=auto;html=1;" edge="1" parent="1" source="EIhSu--SQNdTw0fNG2EI-2" target="EIhSu--SQNdTw0fNG2EI-4">
          <mxGeometry relative="1" as="geometry" />
        </mxCell>
        <mxCell id="EIhSu--SQNdTw0fNG2EI-2" value="Application.dataPath" style="rounded=0;whiteSpace=wrap;html=1;" vertex="1" parent="1">
          <mxGeometry x="80" y="320" width="190" height="30" as="geometry" />
        </mxCell>
        <mxCell id="EIhSu--SQNdTw0fNG2EI-3" value="" style="edgeStyle=orthogonalEdgeStyle;rounded=0;orthogonalLoop=1;jettySize=auto;html=1;" edge="1" parent="1" source="EIhSu--SQNdTw0fNG2EI-4" target="EIhSu--SQNdTw0fNG2EI-31">
          <mxGeometry relative="1" as="geometry" />
        </mxCell>
        <mxCell id="EIhSu--SQNdTw0fNG2EI-4" value="Assets目录（读）" style="rounded=0;whiteSpace=wrap;html=1;" vertex="1" parent="1">
          <mxGeometry x="303" y="320" width="197" height="30" as="geometry" />
        </mxCell>
        <mxCell id="EIhSu--SQNdTw0fNG2EI-5" value="" style="edgeStyle=orthogonalEdgeStyle;rounded=0;orthogonalLoop=1;jettySize=auto;html=1;entryX=0;entryY=0.5;entryDx=0;entryDy=0;" edge="1" parent="1" source="EIhSu--SQNdTw0fNG2EI-10" target="EIhSu--SQNdTw0fNG2EI-2">
          <mxGeometry relative="1" as="geometry">
            <Array as="points">
              <mxPoint x="50" y="465" />
              <mxPoint x="50" y="335" />
            </Array>
          </mxGeometry>
        </mxCell>
        <mxCell id="EIhSu--SQNdTw0fNG2EI-6" value="" style="edgeStyle=orthogonalEdgeStyle;rounded=0;orthogonalLoop=1;jettySize=auto;html=1;entryX=0;entryY=0.5;entryDx=0;entryDy=0;" edge="1" parent="1" source="EIhSu--SQNdTw0fNG2EI-10" target="EIhSu--SQNdTw0fNG2EI-27">
          <mxGeometry relative="1" as="geometry">
            <mxPoint x="-60" y="190" as="targetPoint" />
            <Array as="points">
              <mxPoint x="50" y="465" />
              <mxPoint x="50" y="224" />
            </Array>
          </mxGeometry>
        </mxCell>
        <mxCell id="EIhSu--SQNdTw0fNG2EI-7" value="" style="edgeStyle=orthogonalEdgeStyle;rounded=0;orthogonalLoop=1;jettySize=auto;html=1;entryX=0;entryY=0.5;entryDx=0;entryDy=0;" edge="1" parent="1" source="EIhSu--SQNdTw0fNG2EI-10" target="EIhSu--SQNdTw0fNG2EI-12">
          <mxGeometry relative="1" as="geometry">
            <mxPoint x="60" y="466" as="targetPoint" />
            <Array as="points">
              <mxPoint x="50" y="465" />
              <mxPoint x="50" y="585" />
            </Array>
          </mxGeometry>
        </mxCell>
        <mxCell id="EIhSu--SQNdTw0fNG2EI-8" value="" style="edgeStyle=orthogonalEdgeStyle;rounded=0;orthogonalLoop=1;jettySize=auto;html=1;entryX=0;entryY=0.5;entryDx=0;entryDy=0;" edge="1" parent="1" source="EIhSu--SQNdTw0fNG2EI-10" target="EIhSu--SQNdTw0fNG2EI-17">
          <mxGeometry relative="1" as="geometry">
            <Array as="points">
              <mxPoint x="50" y="465" />
              <mxPoint x="50" y="856" />
            </Array>
          </mxGeometry>
        </mxCell>
        <mxCell id="EIhSu--SQNdTw0fNG2EI-9" value="" style="edgeStyle=orthogonalEdgeStyle;rounded=0;orthogonalLoop=1;jettySize=auto;html=1;entryX=0;entryY=0.5;entryDx=0;entryDy=0;" edge="1" parent="1" source="EIhSu--SQNdTw0fNG2EI-10" target="EIhSu--SQNdTw0fNG2EI-23">
          <mxGeometry relative="1" as="geometry">
            <Array as="points">
              <mxPoint x="50" y="465" />
              <mxPoint x="50" y="1125" />
            </Array>
          </mxGeometry>
        </mxCell>
        <mxCell id="EIhSu--SQNdTw0fNG2EI-10" value="path" style="rounded=0;whiteSpace=wrap;html=1;" vertex="1" parent="1">
          <mxGeometry x="10" y="450" width="30" height="30" as="geometry" />
        </mxCell>
        <mxCell id="EIhSu--SQNdTw0fNG2EI-11" value="" style="edgeStyle=orthogonalEdgeStyle;rounded=0;orthogonalLoop=1;jettySize=auto;html=1;" edge="1" parent="1" source="EIhSu--SQNdTw0fNG2EI-12" target="EIhSu--SQNdTw0fNG2EI-15">
          <mxGeometry relative="1" as="geometry" />
        </mxCell>
        <mxCell id="EIhSu--SQNdTw0fNG2EI-12" value="Application.streamingAssetsPath" style="rounded=0;whiteSpace=wrap;html=1;" vertex="1" parent="1">
          <mxGeometry x="80" y="570" width="190" height="30" as="geometry" />
        </mxCell>
        <mxCell id="EIhSu--SQNdTw0fNG2EI-13" value="" style="edgeStyle=orthogonalEdgeStyle;rounded=0;orthogonalLoop=1;jettySize=auto;html=1;" edge="1" parent="1" source="EIhSu--SQNdTw0fNG2EI-15" target="EIhSu--SQNdTw0fNG2EI-83">
          <mxGeometry relative="1" as="geometry" />
        </mxCell>
        <mxCell id="EIhSu--SQNdTw0fNG2EI-14" value="" style="edgeStyle=orthogonalEdgeStyle;rounded=0;orthogonalLoop=1;jettySize=auto;html=1;entryX=0;entryY=0.5;entryDx=0;entryDy=0;" edge="1" parent="1" source="EIhSu--SQNdTw0fNG2EI-15" target="EIhSu--SQNdTw0fNG2EI-32">
          <mxGeometry relative="1" as="geometry" />
        </mxCell>
        <mxCell id="EIhSu--SQNdTw0fNG2EI-15" value="Assets/streamingAssetsPath（读）&lt;br&gt;内容原封不动打入包中" style="rounded=0;whiteSpace=wrap;html=1;" vertex="1" parent="1">
          <mxGeometry x="303" y="570" width="197" height="30" as="geometry" />
        </mxCell>
        <mxCell id="EIhSu--SQNdTw0fNG2EI-16" value="" style="edgeStyle=orthogonalEdgeStyle;rounded=0;orthogonalLoop=1;jettySize=auto;html=1;entryX=0;entryY=0.5;entryDx=0;entryDy=0;" edge="1" parent="1" source="EIhSu--SQNdTw0fNG2EI-17" target="EIhSu--SQNdTw0fNG2EI-21">
          <mxGeometry relative="1" as="geometry" />
        </mxCell>
        <mxCell id="EIhSu--SQNdTw0fNG2EI-17" value="Application.persistentDataPath" style="rounded=0;whiteSpace=wrap;html=1;" vertex="1" parent="1">
          <mxGeometry x="80" y="841" width="190" height="30" as="geometry" />
        </mxCell>
        <mxCell id="EIhSu--SQNdTw0fNG2EI-18" value="" style="edgeStyle=orthogonalEdgeStyle;rounded=0;orthogonalLoop=1;jettySize=auto;html=1;" edge="1" parent="1" source="EIhSu--SQNdTw0fNG2EI-21" target="EIhSu--SQNdTw0fNG2EI-84">
          <mxGeometry relative="1" as="geometry" />
        </mxCell>
        <mxCell id="EIhSu--SQNdTw0fNG2EI-19" value="" style="edgeStyle=orthogonalEdgeStyle;rounded=0;orthogonalLoop=1;jettySize=auto;html=1;" edge="1" parent="1" source="EIhSu--SQNdTw0fNG2EI-21" target="EIhSu--SQNdTw0fNG2EI-84">
          <mxGeometry relative="1" as="geometry" />
        </mxCell>
        <mxCell id="EIhSu--SQNdTw0fNG2EI-20" value="" style="edgeStyle=orthogonalEdgeStyle;rounded=0;orthogonalLoop=1;jettySize=auto;html=1;entryX=-0.001;entryY=0.688;entryDx=0;entryDy=0;entryPerimeter=0;" edge="1" parent="1" source="EIhSu--SQNdTw0fNG2EI-21" target="EIhSu--SQNdTw0fNG2EI-33">
          <mxGeometry relative="1" as="geometry" />
        </mxCell>
        <mxCell id="EIhSu--SQNdTw0fNG2EI-21" value="持久化目录（读写）" style="rounded=0;whiteSpace=wrap;html=1;fillColor=#d5e8d4;strokeColor=#82b366;" vertex="1" parent="1">
          <mxGeometry x="303" y="841" width="197" height="30" as="geometry" />
        </mxCell>
        <mxCell id="EIhSu--SQNdTw0fNG2EI-22" value="" style="edgeStyle=orthogonalEdgeStyle;rounded=0;orthogonalLoop=1;jettySize=auto;html=1;" edge="1" parent="1" source="EIhSu--SQNdTw0fNG2EI-23" target="EIhSu--SQNdTw0fNG2EI-25">
          <mxGeometry relative="1" as="geometry" />
        </mxCell>
        <mxCell id="EIhSu--SQNdTw0fNG2EI-23" value="Application.temporaryCachePath" style="rounded=0;whiteSpace=wrap;html=1;" vertex="1" parent="1">
          <mxGeometry x="80" y="1110" width="190" height="30" as="geometry" />
        </mxCell>
        <mxCell id="EIhSu--SQNdTw0fNG2EI-24" value="" style="edgeStyle=orthogonalEdgeStyle;rounded=0;orthogonalLoop=1;jettySize=auto;html=1;entryX=0;entryY=0.5;entryDx=0;entryDy=0;" edge="1" parent="1" source="EIhSu--SQNdTw0fNG2EI-25" target="EIhSu--SQNdTw0fNG2EI-34">
          <mxGeometry relative="1" as="geometry" />
        </mxCell>
        <mxCell id="EIhSu--SQNdTw0fNG2EI-25" value="临时缓存目录（读）" style="rounded=0;whiteSpace=wrap;html=1;" vertex="1" parent="1">
          <mxGeometry x="303" y="1110" width="197" height="30" as="geometry" />
        </mxCell>
        <mxCell id="EIhSu--SQNdTw0fNG2EI-26" value="" style="edgeStyle=orthogonalEdgeStyle;rounded=0;orthogonalLoop=1;jettySize=auto;html=1;" edge="1" parent="1" source="EIhSu--SQNdTw0fNG2EI-27" target="EIhSu--SQNdTw0fNG2EI-29">
          <mxGeometry relative="1" as="geometry" />
        </mxCell>
        <mxCell id="EIhSu--SQNdTw0fNG2EI-27" value="Resources" style="rounded=0;whiteSpace=wrap;html=1;" vertex="1" parent="1">
          <mxGeometry x="80" y="209" width="190" height="30" as="geometry" />
        </mxCell>
        <mxCell id="EIhSu--SQNdTw0fNG2EI-28" value="" style="edgeStyle=orthogonalEdgeStyle;rounded=0;orthogonalLoop=1;jettySize=auto;html=1;" edge="1" parent="1" source="EIhSu--SQNdTw0fNG2EI-29" target="EIhSu--SQNdTw0fNG2EI-30">
          <mxGeometry relative="1" as="geometry">
            <Array as="points">
              <mxPoint x="530" y="224" />
              <mxPoint x="530" y="224" />
            </Array>
          </mxGeometry>
        </mxCell>
        <mxCell id="EIhSu--SQNdTw0fNG2EI-29" value="Assets/Resources（读）" style="rounded=0;whiteSpace=wrap;html=1;" vertex="1" parent="1">
          <mxGeometry x="303" y="209" width="197" height="30" as="geometry" />
        </mxCell>
        <mxCell id="EIhSu--SQNdTw0fNG2EI-30" value="只读&lt;br&gt;Resources文件夹下的资源不管是否有用，全部会打包进.apk或者.ipa，并且打包时会将里面的资源&lt;font color=&quot;#ff3333&quot;&gt;压缩处理&lt;/font&gt;" style="rounded=0;whiteSpace=wrap;html=1;fillColor=#d5e8d4;strokeColor=#82b366;" vertex="1" parent="1">
          <mxGeometry x="530" y="169" width="197" height="70" as="geometry" />
        </mxCell>
        <mxCell id="EIhSu--SQNdTw0fNG2EI-31" value="PC端使用，移动端是没有访问权限" style="rounded=0;whiteSpace=wrap;html=1;fillColor=#f8cecc;strokeColor=#b85450;" vertex="1" parent="1">
          <mxGeometry x="530" y="320" width="197" height="30" as="geometry" />
        </mxCell>
        <mxCell id="EIhSu--SQNdTw0fNG2EI-32" value="PC端可读写，移动端只读不可写" style="rounded=0;whiteSpace=wrap;html=1;fillColor=#d5e8d4;strokeColor=#82b366;" vertex="1" parent="1">
          <mxGeometry x="530" y="570" width="197" height="30" as="geometry" />
        </mxCell>
        <mxCell id="EIhSu--SQNdTw0fNG2EI-33" value="可读、可写&lt;br&gt;" style="rounded=0;whiteSpace=wrap;html=1;fillColor=#d5e8d4;strokeColor=#82b366;" vertex="1" parent="1">
          <mxGeometry x="530" y="840" width="197" height="31" as="geometry" />
        </mxCell>
        <mxCell id="EIhSu--SQNdTw0fNG2EI-34" value="可读、可写" style="rounded=0;whiteSpace=wrap;html=1;fillColor=#d5e8d4;strokeColor=#82b366;" vertex="1" parent="1">
          <mxGeometry x="530" y="1110" width="197" height="30" as="geometry" />
        </mxCell>
        <mxCell id="EIhSu--SQNdTw0fNG2EI-35" value="Unity Editor" style="rounded=0;whiteSpace=wrap;html=1;fillColor=#B5B5B5;fontColor=#333333;strokeColor=#666666;" vertex="1" parent="1">
          <mxGeometry x="80" y="350" width="113" height="30" as="geometry" />
        </mxCell>
        <mxCell id="EIhSu--SQNdTw0fNG2EI-36" value="&amp;lt;项目文件夹路径&amp;gt;/Assets" style="rounded=0;whiteSpace=wrap;html=1;align=left;" vertex="1" parent="1">
          <mxGeometry x="193" y="350" width="197" height="30" as="geometry" />
        </mxCell>
        <mxCell id="EIhSu--SQNdTw0fNG2EI-37" value="Android平台" style="rounded=0;whiteSpace=wrap;html=1;fillColor=#B5B5B5;fontColor=#333333;strokeColor=#666666;" vertex="1" parent="1">
          <mxGeometry x="80" y="380" width="113" height="30" as="geometry" />
        </mxCell>
        <mxCell id="EIhSu--SQNdTw0fNG2EI-38" value="/data/app/xxx.xxx.xxx.apk&lt;br&gt;通常它直接指向 APK，如果正在运行拆分二进制构建，则它指向 OBB。" style="rounded=0;whiteSpace=wrap;html=1;align=left;" vertex="1" parent="1">
          <mxGeometry x="193" y="380" width="396" height="30" as="geometry" />
        </mxCell>
        <mxCell id="EIhSu--SQNdTw0fNG2EI-39" value="IOS平台" style="rounded=0;whiteSpace=wrap;html=1;fillColor=#B5B5B5;fontColor=#333333;strokeColor=#666666;" vertex="1" parent="1">
          <mxGeometry x="80" y="410" width="113" height="30" as="geometry" />
        </mxCell>
        <mxCell id="EIhSu--SQNdTw0fNG2EI-40" value="&amp;lt;应用程序包的路径&amp;gt;/&amp;lt; AppName.app &amp;gt; /Data" style="rounded=0;whiteSpace=wrap;html=1;align=left;" vertex="1" parent="1">
          <mxGeometry x="193" y="410" width="197" height="30" as="geometry" />
        </mxCell>
        <mxCell id="EIhSu--SQNdTw0fNG2EI-41" value="Windows" style="rounded=0;whiteSpace=wrap;html=1;fillColor=#B5B5B5;fontColor=#333333;strokeColor=#666666;" vertex="1" parent="1">
          <mxGeometry x="80" y="440" width="113" height="30" as="geometry" />
        </mxCell>
        <mxCell id="EIhSu--SQNdTw0fNG2EI-42" value="../Assets" style="rounded=0;whiteSpace=wrap;html=1;align=left;" vertex="1" parent="1">
          <mxGeometry x="193" y="440" width="197" height="30" as="geometry" />
        </mxCell>
        <mxCell id="EIhSu--SQNdTw0fNG2EI-43" value="Mac" style="rounded=0;whiteSpace=wrap;html=1;fillColor=#B5B5B5;fontColor=#333333;strokeColor=#666666;" vertex="1" parent="1">
          <mxGeometry x="80" y="470" width="113" height="30" as="geometry" />
        </mxCell>
        <mxCell id="EIhSu--SQNdTw0fNG2EI-44" value="&amp;lt;应用程序包的路径&amp;gt;/Contents" style="rounded=0;whiteSpace=wrap;html=1;align=left;" vertex="1" parent="1">
          <mxGeometry x="193" y="470" width="197" height="30" as="geometry" />
        </mxCell>
        <mxCell id="EIhSu--SQNdTw0fNG2EI-45" value="WebGL" style="rounded=0;whiteSpace=wrap;html=1;fillColor=#B5B5B5;fontColor=#333333;strokeColor=#666666;" vertex="1" parent="1">
          <mxGeometry x="80" y="500" width="113" height="30" as="geometry" />
        </mxCell>
        <mxCell id="EIhSu--SQNdTw0fNG2EI-46" value="播放器数据文件文件夹的绝对 url（没有实际数据文件名）" style="rounded=0;whiteSpace=wrap;html=1;align=left;" vertex="1" parent="1">
          <mxGeometry x="193" y="500" width="197" height="30" as="geometry" />
        </mxCell>
        <mxCell id="EIhSu--SQNdTw0fNG2EI-47" value="Unity Editor" style="rounded=0;whiteSpace=wrap;html=1;fillColor=#B5B5B5;fontColor=#333333;strokeColor=#666666;" vertex="1" parent="1">
          <mxGeometry x="80" y="620" width="114" height="30" as="geometry" />
        </mxCell>
        <mxCell id="EIhSu--SQNdTw0fNG2EI-48" value="&amp;lt;项目文件夹路径&amp;gt;/StreamingAssets" style="rounded=0;whiteSpace=wrap;html=1;" vertex="1" parent="1">
          <mxGeometry x="194" y="620" width="197" height="30" as="geometry" />
        </mxCell>
        <mxCell id="EIhSu--SQNdTw0fNG2EI-49" value="Android平台" style="rounded=0;whiteSpace=wrap;html=1;fillColor=#B5B5B5;fontColor=#333333;strokeColor=#666666;" vertex="1" parent="1">
          <mxGeometry x="80" y="650" width="113" height="30" as="geometry" />
        </mxCell>
        <mxCell id="EIhSu--SQNdTw0fNG2EI-50" value="jar:file:///data/app/package name-1/base.apk!/assets&lt;br&gt;&lt;font color=&quot;#ff3333&quot;&gt;只能用过UnityWebRequest类来读取&lt;/font&gt;" style="rounded=0;whiteSpace=wrap;html=1;" vertex="1" parent="1">
          <mxGeometry x="193" y="650" width="396" height="30" as="geometry" />
        </mxCell>
        <mxCell id="EIhSu--SQNdTw0fNG2EI-51" value="IOS平台" style="rounded=0;whiteSpace=wrap;html=1;fillColor=#B5B5B5;fontColor=#333333;strokeColor=#666666;" vertex="1" parent="1">
          <mxGeometry x="80" y="680" width="60" height="30" as="geometry" />
        </mxCell>
        <mxCell id="EIhSu--SQNdTw0fNG2EI-52" value="/var/containers/Bundle/Application/app sandbox/test.app/Data/Raw" style="rounded=0;whiteSpace=wrap;html=1;" vertex="1" parent="1">
          <mxGeometry x="140" y="680" width="250" height="30" as="geometry" />
        </mxCell>
        <mxCell id="EIhSu--SQNdTw0fNG2EI-53" value="Windows" style="rounded=0;whiteSpace=wrap;html=1;fillColor=#B5B5B5;fontColor=#333333;strokeColor=#666666;" vertex="1" parent="1">
          <mxGeometry x="80" y="710" width="70" height="30" as="geometry" />
        </mxCell>
        <mxCell id="EIhSu--SQNdTw0fNG2EI-54" value="../Assets/StreamingAssets" style="rounded=0;whiteSpace=wrap;html=1;" vertex="1" parent="1">
          <mxGeometry x="150" y="710" width="240" height="30" as="geometry" />
        </mxCell>
        <mxCell id="EIhSu--SQNdTw0fNG2EI-55" value="Mac" style="rounded=0;whiteSpace=wrap;html=1;fillColor=#B5B5B5;fontColor=#333333;strokeColor=#666666;" vertex="1" parent="1">
          <mxGeometry x="80" y="740" width="113" height="30" as="geometry" />
        </mxCell>
        <mxCell id="EIhSu--SQNdTw0fNG2EI-56" value="../Assets/StreamingAssets" style="rounded=0;whiteSpace=wrap;html=1;" vertex="1" parent="1">
          <mxGeometry x="193" y="740" width="197" height="30" as="geometry" />
        </mxCell>
        <mxCell id="EIhSu--SQNdTw0fNG2EI-57" value="WebGL" style="rounded=0;whiteSpace=wrap;html=1;fillColor=#B5B5B5;fontColor=#333333;strokeColor=#666666;" vertex="1" parent="1">
          <mxGeometry x="80" y="770" width="113" height="30" as="geometry" />
        </mxCell>
        <mxCell id="EIhSu--SQNdTw0fNG2EI-58" value="../Assets/StreamingAssets" style="rounded=0;whiteSpace=wrap;html=1;" vertex="1" parent="1">
          <mxGeometry x="193" y="770" width="197" height="30" as="geometry" />
        </mxCell>
        <mxCell id="EIhSu--SQNdTw0fNG2EI-59" value="Unity Editor" style="rounded=0;whiteSpace=wrap;html=1;fillColor=#B5B5B5;fontColor=#333333;strokeColor=#666666;" vertex="1" parent="1">
          <mxGeometry x="80" y="259" width="114" height="30" as="geometry" />
        </mxCell>
        <mxCell id="EIhSu--SQNdTw0fNG2EI-60" value="&amp;lt;项目文件夹路径&amp;gt;/Resources" style="rounded=0;whiteSpace=wrap;html=1;" vertex="1" parent="1">
          <mxGeometry x="194" y="259" width="197" height="30" as="geometry" />
        </mxCell>
        <mxCell id="EIhSu--SQNdTw0fNG2EI-61" value="Unity Editor" style="rounded=0;whiteSpace=wrap;html=1;fillColor=#B5B5B5;fontColor=#333333;strokeColor=#666666;" vertex="1" parent="1">
          <mxGeometry x="80" y="900" width="115" height="30" as="geometry" />
        </mxCell>
        <mxCell id="EIhSu--SQNdTw0fNG2EI-62" value="%userprofile%\AppData\Local&lt;br&gt;Low&amp;lt;companyname&amp;lt;productname&amp;gt;" style="rounded=0;whiteSpace=wrap;html=1;" vertex="1" parent="1">
          <mxGeometry x="195" y="900" width="197" height="30" as="geometry" />
        </mxCell>
        <mxCell id="EIhSu--SQNdTw0fNG2EI-63" value="Android平台" style="rounded=0;whiteSpace=wrap;html=1;fillColor=#B5B5B5;fontColor=#333333;strokeColor=#666666;" vertex="1" parent="1">
          <mxGeometry x="80" y="930" width="113" height="30" as="geometry" />
        </mxCell>
        <mxCell id="EIhSu--SQNdTw0fNG2EI-64" value="/storage/emulated/0/Android/data//files" style="rounded=0;whiteSpace=wrap;html=1;" vertex="1" parent="1">
          <mxGeometry x="193" y="930" width="396" height="30" as="geometry" />
        </mxCell>
        <mxCell id="EIhSu--SQNdTw0fNG2EI-65" value="IOS平台" style="rounded=0;whiteSpace=wrap;html=1;fillColor=#B5B5B5;fontColor=#333333;strokeColor=#666666;" vertex="1" parent="1">
          <mxGeometry x="80" y="960" width="59" height="30" as="geometry" />
        </mxCell>
        <mxCell id="EIhSu--SQNdTw0fNG2EI-66" value="/var/mobile/Containers/Data/Application&lt;br style=&quot;border-color: var(--border-color);&quot;&gt;//Documents" style="rounded=0;whiteSpace=wrap;html=1;" vertex="1" parent="1">
          <mxGeometry x="139" y="960" width="251" height="30" as="geometry" />
        </mxCell>
        <mxCell id="EIhSu--SQNdTw0fNG2EI-67" value="Windows" style="rounded=0;whiteSpace=wrap;html=1;fillColor=#B5B5B5;fontColor=#333333;strokeColor=#666666;" vertex="1" parent="1">
          <mxGeometry x="80" y="990" width="69" height="30" as="geometry" />
        </mxCell>
        <mxCell id="EIhSu--SQNdTw0fNG2EI-68" value="%userprofile%\AppData\LocalLow&lt;br style=&quot;border-color: var(--border-color);&quot;&gt;&amp;lt;companyname&amp;gt;&amp;lt;productname&amp;gt;" style="rounded=0;whiteSpace=wrap;html=1;" vertex="1" parent="1">
          <mxGeometry x="149" y="990" width="241" height="30" as="geometry" />
        </mxCell>
        <mxCell id="EIhSu--SQNdTw0fNG2EI-69" value="Mac" style="rounded=0;whiteSpace=wrap;html=1;fillColor=#B5B5B5;fontColor=#333333;strokeColor=#666666;" vertex="1" parent="1">
          <mxGeometry x="80" y="1020" width="113" height="30" as="geometry" />
        </mxCell>
        <mxCell id="EIhSu--SQNdTw0fNG2EI-70" value="~/Library/ApplicationSupport/unity.&lt;br style=&quot;border-color: var(--border-color);&quot;&gt;company name.product name" style="rounded=0;whiteSpace=wrap;html=1;" vertex="1" parent="1">
          <mxGeometry x="193" y="1020" width="197" height="30" as="geometry" />
        </mxCell>
        <mxCell id="EIhSu--SQNdTw0fNG2EI-71" value="WebGL" style="rounded=0;whiteSpace=wrap;html=1;fillColor=#B5B5B5;fontColor=#333333;strokeColor=#666666;" vertex="1" parent="1">
          <mxGeometry x="80" y="1050" width="113" height="30" as="geometry" />
        </mxCell>
        <mxCell id="EIhSu--SQNdTw0fNG2EI-72" value="/idbfs/" style="rounded=0;whiteSpace=wrap;html=1;" vertex="1" parent="1">
          <mxGeometry x="193" y="1050" width="197" height="30" as="geometry" />
        </mxCell>
        <mxCell id="EIhSu--SQNdTw0fNG2EI-73" value="Unity Editor" style="rounded=0;whiteSpace=wrap;html=1;fillColor=#B5B5B5;fontColor=#333333;strokeColor=#666666;" vertex="1" parent="1">
          <mxGeometry x="80" y="1170" width="114" height="30" as="geometry" />
        </mxCell>
        <mxCell id="EIhSu--SQNdTw0fNG2EI-74" value="%userprofile%\AppData\Local\Temp" style="rounded=0;whiteSpace=wrap;html=1;" vertex="1" parent="1">
          <mxGeometry x="194" y="1170" width="197" height="30" as="geometry" />
        </mxCell>
        <mxCell id="EIhSu--SQNdTw0fNG2EI-75" value="Android平台" style="rounded=0;whiteSpace=wrap;html=1;fillColor=#B5B5B5;fontColor=#333333;strokeColor=#666666;" vertex="1" parent="1">
          <mxGeometry x="80" y="1200" width="113" height="30" as="geometry" />
        </mxCell>
        <mxCell id="EIhSu--SQNdTw0fNG2EI-76" value="/storage/emulated/0/Android/data//cache" style="rounded=0;whiteSpace=wrap;html=1;" vertex="1" parent="1">
          <mxGeometry x="193" y="1192" width="396" height="30" as="geometry" />
        </mxCell>
        <mxCell id="EIhSu--SQNdTw0fNG2EI-77" value="IOS平台" style="rounded=0;whiteSpace=wrap;html=1;fillColor=#B5B5B5;fontColor=#333333;strokeColor=#666666;" vertex="1" parent="1">
          <mxGeometry x="80" y="1230" width="60" height="30" as="geometry" />
        </mxCell>
        <mxCell id="EIhSu--SQNdTw0fNG2EI-78" value="/var/mobile/Containers/Data/Application/app sandbox/Library/Caches" style="rounded=0;whiteSpace=wrap;html=1;" vertex="1" parent="1">
          <mxGeometry x="140" y="1230" width="250" height="30" as="geometry" />
        </mxCell>
        <mxCell id="EIhSu--SQNdTw0fNG2EI-79" value="Windows" style="rounded=0;whiteSpace=wrap;html=1;fillColor=#B5B5B5;fontColor=#333333;strokeColor=#666666;" vertex="1" parent="1">
          <mxGeometry x="80" y="1260" width="70" height="30" as="geometry" />
        </mxCell>
        <mxCell id="EIhSu--SQNdTw0fNG2EI-80" value="%userprofile%\AppData\Local\Temp" style="rounded=0;whiteSpace=wrap;html=1;" vertex="1" parent="1">
          <mxGeometry x="150" y="1260" width="240" height="30" as="geometry" />
        </mxCell>
        <mxCell id="EIhSu--SQNdTw0fNG2EI-81" value="Mac" style="rounded=0;whiteSpace=wrap;html=1;fillColor=#B5B5B5;fontColor=#333333;strokeColor=#666666;" vertex="1" parent="1">
          <mxGeometry x="80" y="1290" width="113" height="30" as="geometry" />
        </mxCell>
        <mxCell id="EIhSu--SQNdTw0fNG2EI-82" value="/var/xxx/xxx/xxx/T/" style="rounded=0;whiteSpace=wrap;html=1;" vertex="1" parent="1">
          <mxGeometry x="193" y="1290" width="197" height="30" as="geometry" />
        </mxCell>
        <mxCell id="EIhSu--SQNdTw0fNG2EI-83" value="移动端时只能用过UnityWebRequest类来读取，PC则可以使用IO的File读取。" style="rounded=0;whiteSpace=wrap;html=1;align=left;fontColor=#FF3333;" vertex="1" parent="1">
          <mxGeometry x="80" y="600" width="500" height="20" as="geometry" />
        </mxCell>
        <mxCell id="EIhSu--SQNdTw0fNG2EI-84" value="&lt;div&gt;可使用UnityWebRequest类来读取，&lt;span style=&quot;background-color: initial;&quot;&gt;也可以用File类API(如File.ReadAllText)读写PersistentDataPath文件夹中的文件。(安卓下唯一可以用File类的路径)&lt;/span&gt;&lt;/div&gt;" style="rounded=0;whiteSpace=wrap;html=1;align=left;fontColor=#FF3333;" vertex="1" parent="1">
          <mxGeometry x="80" y="871" width="500" height="29" as="geometry" />
        </mxCell>
        <mxCell id="EIhSu--SQNdTw0fNG2EI-85" value="&lt;font color=&quot;#000000&quot;&gt;临时数据的缓存目录，跟Application.persistentDataPath类似，&lt;/font&gt;但是在IOS上不能被自动备份。一般情况下不会使用此路径。" style="rounded=0;whiteSpace=wrap;html=1;align=left;fontColor=#FF3333;" vertex="1" parent="1">
          <mxGeometry x="80" y="1140" width="500" height="30" as="geometry" />
        </mxCell>
        <mxCell id="EIhSu--SQNdTw0fNG2EI-86" value="通过Resources.Load(“path”)动态加载" style="rounded=0;whiteSpace=wrap;html=1;align=left;fontColor=#FF3333;" vertex="1" parent="1">
          <mxGeometry x="80" y="239" width="500" height="20" as="geometry" />
        </mxCell>
      </root>
    </mxGraphModel>
  </diagram>
</mxfile>
